# xmcd CD database file
#
# Track frame offsets:
#	150
#	17214
#	32348
#	53088
#	75677
#	100792
#	130446
#	154119
#	174740
#
# Disc length: 2548 seconds
#
# Revision: 0
# Processed by: cddbd v1.5.1PL0 Copyright (c) Steve Scherf et al.
# Submitted via: CDex 1.51
#
DISCID=6909f209
DTITLE=Frauke Horn - Lines Ling
DYEAR=2004
DGENRE=New Age
TTITLE0=Aline und der Ling
TTITLE1=Morgentau
TTITLE2=Playing Children
TTITLE3=Foreign Land
TTITLE4=Schwan
TTITLE5=Venus
TTITLE6=Emotional Circle
TTITLE7=Bretonische Hochzeit
TTITLE8=Proschanje
EXTD=YEAR: 2004
EXTT0=
EXTT1=
EXTT2=
EXTT3=
EXTT4=
EXTT5=
EXTT6=
EXTT7=
EXTT8=
PLAYORDER=
